<svg width="16" height="16" viewBox="0 0 16 16" fill="none" xmlns="http://www.w3.org/2000/svg">
  <path fill-rule="evenodd" clip-rule="evenodd" d="M8 0C3.58 0 0 3.58 0 8C0 11.54 2.29 14.63 5.47 15.68C5.87 15.75 6.02 15.51 6.02 15.31C6.02 15.14 6.01 14.53 6.01 13.83C4 14.22 3.48 13.39 3.28 12.92C3.17 12.67 2.75 11.92 2.5 11.77C2.29 11.64 1.92 11.3 2.48 11.29C3 11.28 3.41 11.76 3.55 11.99C4.18 13.07 5.22 12.8 5.66 12.6C5.73 12.07 5.94 11.72 6.17 11.5C4.5 11.31 2.73 10.64 2.73 7.69C2.73 6.81 3.03 6.09 3.52 5.5C3.45 5.3 3.18 4.49 3.58 3.36C3.58 3.36 4.24 3.14 6 4.19C6.63 4 7.32 3.91 8 3.91C8.68 3.91 9.37 4 10 4.19C11.76 3.14 12.42 3.36 12.42 3.36C12.82 4.49 12.55 5.3 12.48 5.5C12.97 6.09 13.27 6.81 13.27 7.69C13.27 10.65 11.5 11.31 9.83 11.49C10.09 11.73 10.32 12.17 10.32 12.83C10.32 13.78 10.31 14.54 10.31 15.31C10.31 15.51 10.46 15.76 10.87 15.68C14.11 14.63 16.4 11.54 16.4 8C16 3.58 12.42 0 8 0Z" fill="white"/>
</svg>
